<?xml version="1.0" ?>
<!-- Uploaded to: SVG Repo, www.svgrepo.com, Generator: SVG Repo Mixer Tools -->
<svg width="800px" height="800px" viewBox="0 0 50 50" id="Message_And_Communication_Icons" version="1.1" xml:space="preserve" xmlns="http://www.w3.org/2000/svg" xmlns:xlink="http://www.w3.org/1999/xlink">
<g>
<g>
<g>
<polygon points="14.2,31.8 15.1,30.8 13.2,30.8 16.2,27.4 16.2,16.6 43.1,16.6 43.1,14.3 4.7,14.3      4.7,33.6 43.1,33.6 43.1,31.8    " style="fill:#4DE0F9;"/>
</g>
</g>
<g>
<g>
<rect height="1.2" style="fill:#0D5FC3;" width="1.5" x="23.1" y="12.7"/>
</g>
</g>
<g>
<g>
<rect height="2.4" style="fill:#0D5FC3;" width="1.2" x="42.5" y="32.5"/>
</g>
</g>
<g>
<g>
<polygon points="5.3,34.9 4.1,34.9 4.1,11 43.7,11 43.7,14.7 42.5,14.7 42.5,12.2 5.3,12.2    " style="fill:#0D5FC3;"/>
</g>
</g>
<g>
<g>
<path d="M43.6,39H4.2C3,39,2,38,2,36.9v-2.5h19v1.2l5.7,0l0-1.3h19v2.5C45.8,38,44.8,39,43.6,39z      M3.2,35.5v1.3c0,0.5,0.4,0.9,0.9,0.9h39.5c0.5,0,0.9-0.4,0.9-0.9v-1.3l-16.6,0c0,0.7-0.6,1.2-1.2,1.2H21c-0.7,0-1.2-0.6-1.2-1.2     v0H3.2z" style="fill:#0D5FC3;"/>
</g>
</g>
<g>
<g>
<g>
<path d="M47.5,31.4H11.8l3.8-4.2V16h31.8V31.4z M14.5,30.2h31.7v-13H16.8v10.5L14.5,30.2z" style="fill:#0D5FC3;"/>
</g>
</g>
<g>
<g>
<g>
<path d="M18.4,18.5V29h2.3v-0.7c0-1.7,1.4-3.1,3.2-3.1c1.7,0,3.1,1.4,3.1,3.2l0,0.6h1.9V18.5H18.4z        M23.8,24.6c-1.2,0-2.2-1-2.2-2.3s1-2.2,2.3-2.2s2.2,1,2.2,2.3S25,24.6,23.8,24.6z" style="fill:#4DE0F9;"/>
</g>
</g>
<g>
<g>
<path d="M23.8,25.2C23.8,25.2,23.8,25.2,23.8,25.2c-0.8,0-1.5-0.3-2-0.9s-0.8-1.3-0.8-2       c0-0.8,0.3-1.5,0.9-2s1.3-0.8,2-0.8c0.8,0,1.5,0.3,2,0.9s0.8,1.3,0.8,2c0,0.8-0.3,1.5-0.9,2C25.2,24.9,24.5,25.2,23.8,25.2z        M23.8,20.7c-0.4,0-0.8,0.2-1.2,0.5c-0.3,0.3-0.5,0.7-0.5,1.2c0,0.4,0.2,0.9,0.5,1.2c0.3,0.3,0.7,0.5,1.2,0.5       c0.4,0,0.9-0.2,1.2-0.5c0.3-0.3,0.5-0.7,0.5-1.2c0-0.4-0.2-0.9-0.5-1.2C24.7,20.8,24.2,20.7,23.8,20.7       C23.8,20.7,23.8,20.7,23.8,20.7z" style="fill:#0D5FC3;"/>
</g>
</g>
<g>
<g>
<path d="M27.5,29h-1.2v-0.6c0-0.7-0.2-1.3-0.7-1.8c-0.5-0.5-1.1-0.8-1.8-0.8c-0.7,0-1.3,0.2-1.8,0.7       c-0.5,0.5-0.8,1.1-0.8,1.8V29h-1.2v-0.7c0-1,0.4-1.9,1.1-2.6c0.7-0.7,1.6-1.1,2.6-1.1c0,0,0,0,0,0c1,0,1.9,0.4,2.6,1.1       c0.7,0.7,1.1,1.7,1.1,2.6V29z" style="fill:#0D5FC3;"/>
</g>
</g>
</g>
<g>
<g>
<g>
<rect height="1.2" style="fill:#0D5FC3;" width="2.6" x="32.2" y="20.1"/>
</g>
</g>
<g>
<g>
<rect height="1.2" style="fill:#0D5FC3;" width="2.6" x="32.2" y="23.1"/>
</g>
</g>
<g>
<g>
<rect height="1.2" style="fill:#0D5FC3;" width="2.6" x="32.2" y="26.2"/>
</g>
</g>
<g>
<g>
<rect height="1.2" style="fill:#0D5FC3;" width="4.7" x="36.7" y="20.1"/>
</g>
</g>
<g>
<g>
<rect height="1.2" style="fill:#0D5FC3;" width="6.7" x="36.7" y="23.1"/>
</g>
</g>
<g>
<g>
<rect height="1.2" style="fill:#0D5FC3;" width="6.7" x="36.7" y="26.2"/>
</g>
</g>
</g>
</g>
</g>
</svg>