<svg width="719" height="309" viewBox="0 0 719 309" fill="none" xmlns="http://www.w3.org/2000/svg">
<rect x="34.0208" y="-429" width="680.418" height="558.116" rx="60" transform="rotate(17.6284 34.0208 -429)" fill="#12262F"/>
<rect x="71.6463" y="-452.86" width="675.418" height="553.116" transform="rotate(17.6284 71.6463 -452.86)" fill="#45788E" stroke="black" stroke-width="5"/>
<mask id="path-3-outside-1_6_327" maskUnits="userSpaceOnUse" x="514.863" y="17.1148" width="90.4163" height="98.7609" fill="black">
<rect fill="white" x="514.863" y="17.1148" width="90.4163" height="98.7609"/>
<path d="M575.792 41.1578C577.091 43.6172 577.847 46.1864 578.061 48.8656C578.287 51.5026 578.016 54.0667 577.247 56.5581C576.49 59.0073 575.269 61.2781 573.582 63.3706C571.923 65.4485 569.864 67.1368 567.404 68.4357C566.548 68.8882 565.868 69.4415 565.366 70.0957C564.891 70.7353 564.578 71.4482 564.428 72.2344C564.29 72.9783 564.301 73.7679 564.459 74.6031C564.618 75.4383 564.916 76.2704 565.354 77.0994L567.018 80.2495L555.163 86.5105L553.412 83.1945C552.155 80.7483 551.372 78.2285 551.063 75.6353C550.781 73.0276 550.97 70.5421 551.631 68.1789C552.304 65.7736 553.436 63.5676 555.027 61.5612C556.603 59.5271 558.635 57.8533 561.122 56.5398C561.951 56.102 562.644 55.5414 563.202 54.858C563.76 54.1746 564.163 53.4317 564.41 52.6294C564.671 51.7848 564.764 50.9231 564.688 50.0441C564.626 49.1229 564.376 48.2478 563.938 47.4188C563.5 46.5898 562.926 45.9036 562.215 45.3603C561.531 44.8024 560.774 44.4069 559.945 44.1738C559.128 43.8984 558.28 43.7985 557.401 43.8739C556.522 43.9494 555.668 44.2061 554.839 44.6439L527.607 59.0266L521.324 47.1307L548.556 32.748C551.015 31.4491 553.571 30.7003 556.222 30.5014C558.901 30.288 561.473 30.5732 563.937 31.3571C566.413 32.0987 568.677 33.3064 570.727 34.9801C572.805 36.6393 574.493 38.6985 575.792 41.1578ZM573.736 90.0598C574.262 91.0546 574.564 92.0963 574.644 93.1849C574.738 94.2312 574.634 95.24 574.334 96.2112C574.035 97.1824 573.551 98.0739 572.884 98.8855C572.232 99.7248 571.422 100.4 570.455 100.911C569.488 101.421 568.46 101.717 567.372 101.797C566.325 101.89 565.303 101.794 564.304 101.509C563.333 101.209 562.427 100.733 561.588 100.081C560.762 99.3861 560.086 98.5415 559.561 97.5467C559.05 96.5796 558.748 95.5728 558.655 94.5265C558.589 93.4655 558.706 92.4495 559.006 91.4782C559.334 90.4924 559.831 89.5937 560.498 88.7821C561.178 87.9282 562.001 87.2458 562.968 86.735C563.935 86.2242 564.949 85.9361 566.01 85.8705C567.057 85.7773 568.066 85.8806 569.037 86.1805C570.008 86.4804 570.899 86.9638 571.711 87.6307C572.55 88.283 573.225 89.0927 573.736 90.0598Z"/>
</mask>
<path d="M575.792 41.1578C577.091 43.6172 577.847 46.1864 578.061 48.8656C578.287 51.5026 578.016 54.0667 577.247 56.5581C576.49 59.0073 575.269 61.2781 573.582 63.3706C571.923 65.4485 569.864 67.1368 567.404 68.4357C566.548 68.8882 565.868 69.4415 565.366 70.0957C564.891 70.7353 564.578 71.4482 564.428 72.2344C564.29 72.9783 564.301 73.7679 564.459 74.6031C564.618 75.4383 564.916 76.2704 565.354 77.0994L567.018 80.2495L555.163 86.5105L553.412 83.1945C552.155 80.7483 551.372 78.2285 551.063 75.6353C550.781 73.0276 550.97 70.5421 551.631 68.1789C552.304 65.7736 553.436 63.5676 555.027 61.5612C556.603 59.5271 558.635 57.8533 561.122 56.5398C561.951 56.102 562.644 55.5414 563.202 54.858C563.76 54.1746 564.163 53.4317 564.41 52.6294C564.671 51.7848 564.764 50.9231 564.688 50.0441C564.626 49.1229 564.376 48.2478 563.938 47.4188C563.5 46.5898 562.926 45.9036 562.215 45.3603C561.531 44.8024 560.774 44.4069 559.945 44.1738C559.128 43.8984 558.28 43.7985 557.401 43.8739C556.522 43.9494 555.668 44.2061 554.839 44.6439L527.607 59.0266L521.324 47.1307L548.556 32.748C551.015 31.4491 553.571 30.7003 556.222 30.5014C558.901 30.288 561.473 30.5732 563.937 31.3571C566.413 32.0987 568.677 33.3064 570.727 34.9801C572.805 36.6393 574.493 38.6985 575.792 41.1578ZM573.736 90.0598C574.262 91.0546 574.564 92.0963 574.644 93.1849C574.738 94.2312 574.634 95.24 574.334 96.2112C574.035 97.1824 573.551 98.0739 572.884 98.8855C572.232 99.7248 571.422 100.4 570.455 100.911C569.488 101.421 568.46 101.717 567.372 101.797C566.325 101.89 565.303 101.794 564.304 101.509C563.333 101.209 562.427 100.733 561.588 100.081C560.762 99.3861 560.086 98.5415 559.561 97.5467C559.05 96.5796 558.748 95.5728 558.655 94.5265C558.589 93.4655 558.706 92.4495 559.006 91.4782C559.334 90.4924 559.831 89.5937 560.498 88.7821C561.178 87.9282 562.001 87.2458 562.968 86.735C563.935 86.2242 564.949 85.9361 566.01 85.8705C567.057 85.7773 568.066 85.8806 569.037 86.1805C570.008 86.4804 570.899 86.9638 571.711 87.6307C572.55 88.283 573.225 89.0927 573.736 90.0598Z" fill="white"/>
<path d="M578.061 48.8656L574.073 49.1832L574.074 49.1956L574.076 49.2079L578.061 48.8656ZM573.582 63.3706L570.468 60.8602L570.462 60.8674L570.456 60.8747L573.582 63.3706ZM565.366 70.0957L562.194 67.6587L562.174 67.6846L562.154 67.7108L565.366 70.0957ZM564.428 72.2344L560.499 71.4836L560.496 71.4962L560.494 71.5089L564.428 72.2344ZM567.018 80.2495L568.886 83.7865L572.423 81.9184L570.554 78.3814L567.018 80.2495ZM555.163 86.5105L551.626 88.3785L553.494 91.9155L557.031 90.0475L555.163 86.5105ZM553.412 83.1945L549.854 85.0223L549.864 85.0425L549.875 85.0626L553.412 83.1945ZM551.063 75.6353L547.086 76.065L547.088 76.0871L547.091 76.1092L551.063 75.6353ZM551.631 68.1789L547.779 67.1007L547.778 67.1025L551.631 68.1789ZM555.027 61.5612L558.161 64.0463L558.175 64.0289L558.189 64.0113L555.027 61.5612ZM564.688 50.0441L560.697 50.3146L560.7 50.3505L560.703 50.3864L564.688 50.0441ZM562.215 45.3603L559.685 48.4589L559.735 48.4996L559.786 48.5387L562.215 45.3603ZM559.945 44.1738L558.667 47.9642L558.764 47.997L558.863 48.0247L559.945 44.1738ZM527.607 59.0266L524.07 60.8947L525.938 64.4317L529.475 62.5636L527.607 59.0266ZM521.324 47.1307L519.456 43.5937L515.919 45.4618L517.787 48.9988L521.324 47.1307ZM556.222 30.5014L556.521 34.4902L556.531 34.4895L556.54 34.4888L556.222 30.5014ZM563.937 31.3571L562.724 35.1688L562.757 35.1792L562.789 35.189L563.937 31.3571ZM570.727 34.9801L568.198 38.0787L568.214 38.0924L568.231 38.1059L570.727 34.9801ZM574.644 93.1849L570.655 93.4786L570.658 93.5092L570.66 93.5397L574.644 93.1849ZM572.884 98.8855L569.794 96.3462L569.759 96.3881L569.726 96.4309L572.884 98.8855ZM567.372 101.797L567.078 97.8079L567.047 97.8101L567.017 97.8129L567.372 101.797ZM564.304 101.509L563.124 105.331L563.164 105.343L563.205 105.355L564.304 101.509ZM561.588 100.081L559.014 103.143L559.073 103.192L559.133 103.239L561.588 100.081ZM558.655 94.5265L554.662 94.7732L554.666 94.8273L554.67 94.8814L558.655 94.5265ZM559.006 91.4782L555.21 90.2171L555.197 90.2575L555.184 90.2981L559.006 91.4782ZM560.498 88.7821L563.588 91.3214L563.608 91.2977L563.627 91.2737L560.498 88.7821ZM566.01 85.8705L566.257 89.8629L566.311 89.8595L566.365 89.8547L566.01 85.8705ZM571.711 87.6307L569.172 90.7213L569.214 90.7557L569.256 90.789L571.711 87.6307ZM572.255 43.0259C573.309 45.0215 573.905 47.0651 574.073 49.1832L582.048 48.5479C581.79 45.3077 580.873 42.2128 579.329 39.2898L572.255 43.0259ZM574.076 49.2079C574.259 51.3395 574.04 53.3864 573.425 55.378L581.069 57.7382C581.992 54.7471 582.316 51.6656 582.046 48.5233L574.076 49.2079ZM573.425 55.378C572.825 57.3196 571.852 59.1429 570.468 60.8602L576.696 65.881C578.685 63.4134 580.156 60.695 581.069 57.7382L573.425 55.378ZM570.456 60.8747C569.156 62.503 567.532 63.8447 565.536 64.8987L569.272 71.9727C572.195 70.429 574.69 68.3939 576.708 65.8665L570.456 60.8747ZM565.536 64.8987C564.259 65.5734 563.103 66.4757 562.194 67.6587L568.537 72.5327C568.634 72.4073 568.837 72.2029 569.272 71.9727L565.536 64.8987ZM562.154 67.7108C561.318 68.8365 560.762 70.1085 560.499 71.4836L568.357 72.9852C568.394 72.788 568.463 72.6342 568.577 72.4806L562.154 67.7108ZM560.494 71.5089C560.257 72.7956 560.29 74.0872 560.529 75.3484L568.389 73.8578C568.312 73.4486 568.324 73.1611 568.361 72.9598L560.494 71.5089ZM560.529 75.3484C560.769 76.6133 561.212 77.8218 561.817 78.9675L568.891 75.2313C568.62 74.719 568.466 74.2633 568.389 73.8578L560.529 75.3484ZM561.817 78.9675L563.481 82.1176L570.554 78.3814L568.891 75.2313L561.817 78.9675ZM565.149 76.7125L553.295 82.9735L557.031 90.0475L568.886 83.7865L565.149 76.7125ZM558.7 84.6424L556.949 81.3265L549.875 85.0626L551.626 88.3785L558.7 84.6424ZM556.97 81.3668C555.919 79.3209 555.285 77.2577 555.035 75.1615L547.091 76.1092C547.46 79.1994 548.391 82.1756 549.854 85.0223L556.97 81.3668ZM555.04 75.2057C554.809 73.0681 554.969 71.096 555.483 69.2554L547.778 67.1025C546.972 69.9882 546.753 72.9871 547.086 76.065L555.04 75.2057ZM555.482 69.2572C556.009 67.3768 556.892 65.6469 558.161 64.0463L551.892 59.0761C549.98 61.4884 548.599 64.1703 547.779 67.1007L555.482 69.2572ZM558.189 64.0113C559.385 62.468 560.959 61.1493 562.99 60.0768L559.254 53.0028C556.31 54.5574 553.822 56.5862 551.865 59.1111L558.189 64.0113ZM562.99 60.0768C564.262 59.4048 565.383 58.5113 566.301 57.3875L560.103 52.3284C559.905 52.5714 559.639 52.7992 559.254 53.0028L562.99 60.0768ZM566.301 57.3875C567.167 56.3256 567.825 55.1287 568.232 53.8095L560.588 51.4493C560.5 51.7347 560.352 52.0235 560.103 52.3284L566.301 57.3875ZM568.232 53.8095C568.645 52.4737 568.793 51.095 568.674 49.7018L560.703 50.3864C560.734 50.7511 560.698 51.096 560.588 51.4493L568.232 53.8095ZM568.679 49.7735C568.578 48.2852 568.17 46.8668 567.475 45.5507L560.401 49.2869C560.581 49.6288 560.673 49.9606 560.697 50.3146L568.679 49.7735ZM567.475 45.5507C566.78 44.2349 565.836 43.0935 564.643 42.182L559.786 48.5387C560.015 48.7138 560.22 48.9447 560.401 49.2869L567.475 45.5507ZM564.744 42.2617C563.645 41.3646 562.398 40.7081 561.026 40.3228L558.863 48.0247C559.151 48.1057 559.417 48.2403 559.685 48.4589L564.744 42.2617ZM561.222 40.3833C559.872 39.9282 558.472 39.7672 557.058 39.8886L557.743 47.8593C558.087 47.8297 558.383 47.8686 558.667 47.9642L561.222 40.3833ZM557.058 39.8886C555.613 40.0127 554.243 40.4349 552.971 41.1069L556.707 48.1809C557.092 47.9773 557.43 47.8861 557.743 47.8593L557.058 39.8886ZM552.971 41.1069L525.739 55.4896L529.475 62.5636L556.707 48.1809L552.971 41.1069ZM531.144 57.1585L524.861 45.2626L517.787 48.9988L524.07 60.8947L531.144 57.1585ZM523.192 50.6677L550.424 36.285L546.688 29.211L519.456 43.5937L523.192 50.6677ZM550.424 36.285C552.42 35.2309 554.443 34.646 556.521 34.4902L555.923 26.5126C552.698 26.7545 549.611 27.6673 546.688 29.211L550.424 36.285ZM556.54 34.4888C558.723 34.3149 560.774 34.5483 562.724 35.1688L565.149 27.5453C562.172 26.5981 559.08 26.2611 555.905 26.5141L556.54 34.4888ZM562.789 35.189C564.749 35.7759 566.545 36.73 568.198 38.0787L573.257 31.8816C570.808 29.8828 568.077 28.4215 565.084 27.5252L562.789 35.189ZM568.231 38.1059C569.86 39.4061 571.201 41.0301 572.255 43.0259L579.329 39.2898C577.786 36.3669 575.751 33.8725 573.223 31.8544L568.231 38.1059ZM570.199 91.9279C570.475 92.4501 570.617 92.9574 570.655 93.4786L578.634 92.8911C578.512 91.2352 578.048 89.6592 577.273 88.1918L570.199 91.9279ZM570.66 93.5397C570.709 94.0864 570.654 94.5728 570.513 95.0311L578.156 97.3913C578.615 95.9072 578.766 94.376 578.629 92.83L570.66 93.5397ZM570.513 95.0311C570.371 95.4894 570.142 95.9221 569.794 96.3462L575.975 101.425C576.96 100.226 577.698 98.8755 578.156 97.3913L570.513 95.0311ZM569.726 96.4309C569.432 96.8088 569.067 97.1201 568.587 97.3736L572.323 104.448C573.777 103.68 575.032 102.641 576.043 101.34L569.726 96.4309ZM568.587 97.3736C568.107 97.6273 567.615 97.7683 567.078 97.8079L567.665 105.786C569.305 105.666 570.869 105.216 572.323 104.448L568.587 97.3736ZM567.017 97.8129C566.454 97.863 565.924 97.8117 565.402 97.6627L563.205 105.355C564.681 105.777 566.197 105.918 567.726 105.781L567.017 97.8129ZM565.484 97.687C564.995 97.536 564.518 97.2921 564.043 96.9224L559.133 103.239C560.336 104.174 561.67 104.882 563.124 105.331L565.484 97.687ZM564.162 97.0187C563.747 96.6703 563.392 96.2367 563.098 95.6786L556.024 99.4148C556.78 100.846 557.776 102.102 559.014 103.143L564.162 97.0187ZM563.098 95.6786C562.824 95.1615 562.683 94.6671 562.639 94.1716L554.67 94.8814C554.813 96.4786 555.275 97.9977 556.024 99.4148L563.098 95.6786ZM562.647 94.2798C562.61 93.6785 562.677 93.1472 562.828 92.6584L555.184 90.2981C554.735 91.7517 554.568 93.2526 554.662 94.7732L562.647 94.2798ZM562.802 92.7394C562.973 92.2246 563.229 91.7582 563.588 91.3214L557.407 86.2427C556.432 87.4292 555.694 88.7602 555.21 90.2171L562.802 92.7394ZM563.627 91.2737C563.962 90.8525 564.356 90.5257 564.836 90.272L561.1 83.198C559.646 83.966 558.393 85.0039 557.369 86.2904L563.627 91.2737ZM564.836 90.272C565.316 90.0185 565.779 89.8924 566.257 89.8629L565.764 81.8781C564.119 81.9797 562.554 82.43 561.1 83.198L564.836 90.272ZM566.365 89.8547C566.912 89.806 567.398 89.861 567.857 90.0025L570.217 82.3586C568.733 81.9003 567.202 81.7486 565.656 81.8863L566.365 89.8547ZM567.857 90.0025C568.315 90.144 568.748 90.3728 569.172 90.7213L574.25 84.5401C573.051 83.5548 571.701 82.8168 570.217 82.3586L567.857 90.0025ZM569.256 90.789C569.634 91.0827 569.946 91.4478 570.199 91.9279L577.273 88.1918C576.505 86.7376 575.466 85.4833 574.166 84.4724L569.256 90.789Z" fill="black" mask="url(#path-3-outside-1_6_327)"/>
<mask id="path-5-outside-2_6_327" maskUnits="userSpaceOnUse" x="235.11" y="80.723" width="64.0227" height="82.971" fill="black">
<rect fill="white" x="235.11" y="80.723" width="64.0227" height="82.971"/>
<path d="M241.147 135.957C241.29 133.18 241.955 130.585 243.143 128.174C244.298 125.793 245.843 123.729 247.779 121.982C249.682 120.265 251.893 118.939 254.413 118.005C256.902 117.068 259.535 116.672 262.313 116.814C263.28 116.864 264.148 116.736 264.914 116.431C265.65 116.125 266.283 115.673 266.814 115.074C267.313 114.505 267.708 113.821 267.999 113.023C268.291 112.224 268.46 111.357 268.508 110.42L268.691 106.863L282.08 107.55L281.887 111.295C281.715 114.04 281.098 116.605 280.037 118.991C278.945 121.376 277.51 123.415 275.734 125.107C273.924 126.829 271.823 128.145 269.429 129.055C267.034 129.996 264.432 130.394 261.623 130.25C260.687 130.202 259.804 130.328 258.975 130.63C258.146 130.932 257.42 131.364 256.797 131.926C256.14 132.518 255.62 133.211 255.235 134.005C254.817 134.829 254.584 135.708 254.536 136.645C254.488 137.581 254.63 138.464 254.963 139.295C255.265 140.124 255.713 140.851 256.306 141.476C256.867 142.131 257.545 142.651 258.338 143.036C259.132 143.421 259.997 143.637 260.933 143.685L291.69 145.264L291 158.7L260.244 157.121C257.466 156.978 254.887 156.314 252.508 155.128C250.097 153.94 248.033 152.379 246.318 150.445C244.569 148.54 243.243 146.344 242.338 143.857C241.402 141.368 241.005 138.735 241.147 135.957ZM267.939 94.9959C267.997 93.8724 268.27 92.8225 268.758 91.8462C269.213 90.8996 269.818 90.0858 270.573 89.4048C271.328 88.7239 272.199 88.2054 273.187 87.8493C274.177 87.4621 275.218 87.2965 276.311 87.3525C277.403 87.4086 278.437 87.6808 279.413 88.1689C280.36 88.6243 281.19 89.2302 281.902 89.9864C282.583 90.7411 283.117 91.6133 283.504 92.6033C283.858 93.6228 284.007 94.6943 283.949 95.8178C283.893 96.9101 283.637 97.9296 283.182 98.8762C282.695 99.8213 282.075 100.634 281.32 101.315C280.534 101.995 279.647 102.512 278.659 102.868C277.638 103.254 276.581 103.419 275.489 103.363C274.396 103.307 273.378 103.035 272.433 102.549C271.486 102.093 270.672 101.488 269.991 100.734C269.31 99.979 268.792 99.1075 268.436 98.1192C268.049 97.1293 267.883 96.0882 267.939 94.9959Z"/>
</mask>
<path d="M241.147 135.957C241.29 133.18 241.955 130.585 243.143 128.174C244.298 125.793 245.843 123.729 247.779 121.982C249.682 120.265 251.893 118.939 254.413 118.005C256.902 117.068 259.535 116.672 262.313 116.814C263.28 116.864 264.148 116.736 264.914 116.431C265.65 116.125 266.283 115.673 266.814 115.074C267.313 114.505 267.708 113.821 267.999 113.023C268.291 112.224 268.46 111.357 268.508 110.42L268.691 106.863L282.08 107.55L281.887 111.295C281.715 114.04 281.098 116.605 280.037 118.991C278.945 121.376 277.51 123.415 275.734 125.107C273.924 126.829 271.823 128.145 269.429 129.055C267.034 129.996 264.432 130.394 261.623 130.25C260.687 130.202 259.804 130.328 258.975 130.63C258.146 130.932 257.42 131.364 256.797 131.926C256.14 132.518 255.62 133.211 255.235 134.005C254.817 134.829 254.584 135.708 254.536 136.645C254.488 137.581 254.63 138.464 254.963 139.295C255.265 140.124 255.713 140.851 256.306 141.476C256.867 142.131 257.545 142.651 258.338 143.036C259.132 143.421 259.997 143.637 260.933 143.685L291.69 145.264L291 158.7L260.244 157.121C257.466 156.978 254.887 156.314 252.508 155.128C250.097 153.94 248.033 152.379 246.318 150.445C244.569 148.54 243.243 146.344 242.338 143.857C241.402 141.368 241.005 138.735 241.147 135.957ZM267.939 94.9959C267.997 93.8724 268.27 92.8225 268.758 91.8462C269.213 90.8996 269.818 90.0858 270.573 89.4048C271.328 88.7239 272.199 88.2054 273.187 87.8493C274.177 87.4621 275.218 87.2965 276.311 87.3525C277.403 87.4086 278.437 87.6808 279.413 88.1689C280.36 88.6243 281.19 89.2302 281.902 89.9864C282.583 90.7411 283.117 91.6133 283.504 92.6033C283.858 93.6228 284.007 94.6943 283.949 95.8178C283.893 96.9101 283.637 97.9296 283.182 98.8762C282.695 99.8213 282.075 100.634 281.32 101.315C280.534 101.995 279.647 102.512 278.659 102.868C277.638 103.254 276.581 103.419 275.489 103.363C274.396 103.307 273.378 103.035 272.433 102.549C271.486 102.093 270.672 101.488 269.991 100.734C269.31 99.979 268.792 99.1075 268.436 98.1192C268.049 97.1293 267.883 96.0882 267.939 94.9959Z" fill="white"/>
<path d="M243.143 128.174L246.731 129.942L246.737 129.931L246.742 129.92L243.143 128.174ZM254.413 118.005L255.804 121.755L255.813 121.752L255.822 121.748L254.413 118.005ZM264.914 116.431L266.392 120.148L266.423 120.136L266.453 120.124L264.914 116.431ZM266.814 115.074L269.806 117.73L269.814 117.72L269.823 117.71L266.814 115.074ZM268.691 106.863L268.896 102.868L264.901 102.663L264.696 106.657L268.691 106.863ZM282.08 107.55L286.074 107.755L286.279 103.76L282.285 103.555L282.08 107.55ZM281.887 111.295L285.879 111.545L285.881 111.523L285.882 111.5L281.887 111.295ZM280.037 118.991L283.674 120.657L283.683 120.637L283.692 120.617L280.037 118.991ZM275.734 125.107L278.491 128.005L278.493 128.003L275.734 125.107ZM269.429 129.055L268.008 125.316L267.987 125.323L267.967 125.332L269.429 129.055ZM255.235 134.005L258.802 135.815L258.818 135.783L258.834 135.751L255.235 134.005ZM254.963 139.295L258.722 137.927L258.7 137.867L258.676 137.807L254.963 139.295ZM256.306 141.476L259.344 138.874L259.277 138.796L259.206 138.721L256.306 141.476ZM291.69 145.264L295.685 145.469L295.89 141.474L291.895 141.269L291.69 145.264ZM291 158.7L290.795 162.694L294.79 162.899L294.995 158.905L291 158.7ZM252.508 155.128L254.292 151.548L254.284 151.543L254.275 151.539L252.508 155.128ZM246.318 150.445L249.31 147.79L249.288 147.765L249.264 147.74L246.318 150.445ZM242.338 143.857L246.097 142.489L246.089 142.469L246.082 142.449L242.338 143.857ZM268.758 91.8462L272.335 93.6353L272.349 93.6078L272.362 93.5802L268.758 91.8462ZM273.187 87.8493L274.543 91.6125L274.594 91.5942L274.645 91.5744L273.187 87.8493ZM279.413 88.1689L277.624 91.7466L277.652 91.7603L277.679 91.7736L279.413 88.1689ZM281.902 89.9864L284.871 87.3067L284.843 87.2751L284.814 87.2442L281.902 89.9864ZM283.504 92.6033L287.282 91.2897L287.257 91.2173L287.229 91.146L283.504 92.6033ZM283.182 98.8762L286.738 100.707L286.763 100.659L286.787 100.61L283.182 98.8762ZM281.32 101.315L283.936 104.341L283.968 104.313L284 104.285L281.32 101.315ZM278.659 102.868L277.303 99.1051L277.274 99.1155L277.246 99.1263L278.659 102.868ZM272.433 102.549L274.264 98.9924L274.216 98.9676L274.167 98.9441L272.433 102.549ZM268.436 98.1192L272.199 96.7635L272.181 96.7124L272.161 96.6619L268.436 98.1192ZM245.142 136.162C245.258 133.909 245.792 131.848 246.731 129.942L239.555 126.407C238.118 129.323 237.322 132.451 237.153 135.752L245.142 136.162ZM246.742 129.92C247.675 127.995 248.911 126.348 250.459 124.952L245.099 119.012C242.775 121.11 240.92 123.591 239.544 126.429L246.742 129.92ZM250.459 124.952C251.967 123.591 253.736 122.522 255.804 121.755L253.023 114.254C250.051 115.356 247.397 116.939 245.099 119.012L250.459 124.952ZM255.822 121.748C257.772 121.015 259.854 120.693 262.108 120.809L262.518 112.82C259.217 112.65 256.032 113.122 253.005 114.261L255.822 121.748ZM262.108 120.809C263.551 120.883 265.006 120.7 266.392 120.148L263.436 112.715C263.289 112.773 263.01 112.845 262.518 112.82L262.108 120.809ZM266.453 120.124C267.747 119.584 268.876 118.777 269.806 117.73L263.823 112.418C263.69 112.569 263.552 112.666 263.376 112.739L266.453 120.124ZM269.823 117.71C270.685 116.726 271.317 115.599 271.757 114.393L264.241 111.652C264.099 112.043 263.941 112.284 263.806 112.438L269.823 117.71ZM271.757 114.393C272.198 113.184 272.437 111.919 272.503 110.625L264.514 110.215C264.484 110.794 264.383 111.264 264.241 111.652L271.757 114.393ZM272.503 110.625L272.686 107.068L264.696 106.657L264.514 110.215L272.503 110.625ZM268.486 110.857L281.874 111.545L282.285 103.555L268.896 102.868L268.486 110.857ZM278.085 107.345L277.893 111.09L285.882 111.5L286.074 107.755L278.085 107.345ZM277.895 111.044C277.751 113.34 277.24 115.437 276.382 117.366L283.692 120.617C284.957 117.773 285.679 114.739 285.879 111.545L277.895 111.044ZM276.401 117.325C275.505 119.28 274.358 120.893 272.975 122.211L278.493 128.003C280.662 125.937 282.384 123.472 283.674 120.657L276.401 117.325ZM272.976 122.209C271.562 123.556 269.917 124.59 268.008 125.316L270.85 132.794C273.728 131.7 276.287 130.102 278.491 128.005L272.976 122.209ZM267.967 125.332C266.149 126.045 264.122 126.373 261.828 126.255L261.418 134.244C264.742 134.415 267.919 133.946 270.892 132.778L267.967 125.332ZM261.828 126.255C260.391 126.181 258.971 126.375 257.608 126.871L260.343 134.389C260.638 134.282 260.983 134.222 261.418 134.244L261.828 126.255ZM257.608 126.871C256.319 127.34 255.142 128.032 254.117 128.957L259.476 134.896C259.698 134.696 259.973 134.524 260.343 134.389L257.608 126.871ZM254.117 128.957C253.079 129.893 252.246 131.002 251.636 132.26L258.834 135.751C258.994 135.421 259.202 135.144 259.476 134.896L254.117 128.957ZM251.668 132.195C250.993 133.526 250.618 134.953 250.541 136.44L258.531 136.85C258.551 136.464 258.641 136.132 258.802 135.815L251.668 132.195ZM250.541 136.44C250.465 137.926 250.692 139.389 251.25 140.783L258.676 137.807C258.569 137.54 258.511 137.236 258.531 136.85L250.541 136.44ZM251.204 140.663C251.689 141.996 252.425 143.198 253.406 144.231L259.206 138.721C259 138.504 258.84 138.252 258.722 137.927L251.204 140.663ZM253.269 144.079C254.196 145.161 255.316 146.016 256.593 146.635L260.084 139.436C259.773 139.286 259.539 139.101 259.344 138.874L253.269 144.079ZM256.593 146.635C257.898 147.268 259.291 147.606 260.728 147.68L261.139 139.69C260.703 139.668 260.366 139.573 260.084 139.436L256.593 146.635ZM260.728 147.68L291.485 149.259L291.895 141.269L261.139 139.69L260.728 147.68ZM287.695 145.059L287.005 158.494L294.995 158.905L295.685 145.469L287.695 145.059ZM291.205 154.705L260.449 153.126L260.039 161.115L290.795 162.694L291.205 154.705ZM260.449 153.126C258.195 153.01 256.157 152.477 254.292 151.548L250.723 158.708C253.618 160.15 256.738 160.946 260.039 161.115L260.449 153.126ZM254.275 151.539C252.31 150.571 250.668 149.322 249.31 147.79L243.325 153.099C245.398 155.436 247.883 157.308 250.74 158.716L254.275 151.539ZM249.264 147.74C247.881 146.232 246.826 144.494 246.097 142.489L238.579 145.225C239.659 148.195 241.258 150.848 243.371 153.15L249.264 147.74ZM246.082 142.449C245.348 140.498 245.026 138.417 245.142 136.162L237.153 135.752C236.983 139.053 237.455 142.238 238.594 145.265L246.082 142.449ZM271.934 95.201C271.964 94.6112 272.102 94.1027 272.335 93.6353L265.18 90.0572C264.438 91.5423 264.029 93.1335 263.944 94.7908L271.934 95.201ZM272.362 93.5802C272.6 93.0856 272.896 92.6959 273.253 92.3745L267.893 86.4351C266.74 87.4757 265.826 88.7135 265.153 90.1122L272.362 93.5802ZM273.253 92.3745C273.609 92.0532 274.027 91.7986 274.543 91.6125L271.832 84.0861C270.371 84.6122 269.046 85.3945 267.893 86.4351L273.253 92.3745ZM274.645 91.5744C275.09 91.4001 275.563 91.3194 276.106 91.3473L276.516 83.3578C274.873 83.2735 273.264 83.5241 271.73 84.1242L274.645 91.5744ZM276.106 91.3473C276.648 91.3751 277.143 91.5057 277.624 91.7466L281.203 84.5913C279.732 83.8558 278.158 83.4421 276.516 83.3578L276.106 91.3473ZM277.679 91.7736C278.189 92.0186 278.618 92.3338 278.99 92.7287L284.814 87.2442C283.761 86.1265 282.531 85.23 281.147 84.5643L277.679 91.7736ZM278.932 92.6661C279.275 93.046 279.559 93.4995 279.779 94.0605L287.229 91.146C286.674 89.7272 285.891 88.4362 284.871 87.3067L278.932 92.6661ZM279.726 93.9168C279.904 94.4283 279.987 94.9825 279.954 95.6127L287.944 96.0229C288.027 94.4061 287.813 92.8173 287.282 91.2897L279.726 93.9168ZM279.954 95.6127C279.924 96.1968 279.793 96.694 279.577 97.1422L286.787 100.61C287.482 99.1652 287.862 97.6234 287.944 96.0229L279.954 95.6127ZM279.626 97.0452C279.35 97.5808 279.02 98.0027 278.64 98.3455L284 104.285C285.129 103.266 286.041 102.062 286.738 100.707L279.626 97.0452ZM278.704 98.2892C278.294 98.6439 277.835 98.9135 277.303 99.1051L280.015 106.632C281.459 106.111 282.775 105.345 283.936 104.341L278.704 98.2892ZM277.246 99.1263C276.742 99.3166 276.236 99.3958 275.694 99.368L275.284 107.357C276.926 107.442 278.534 107.191 280.072 106.61L277.246 99.1263ZM275.694 99.368C275.152 99.3401 274.689 99.2115 274.264 98.9924L270.602 106.105C272.066 106.859 273.641 107.273 275.284 107.357L275.694 99.368ZM274.167 98.9441C273.672 98.7062 273.282 98.41 272.961 98.054L267.022 103.413C268.062 104.567 269.3 105.48 270.699 106.153L274.167 98.9441ZM272.961 98.054C272.64 97.6979 272.385 97.2798 272.199 96.7635L264.673 99.475C265.199 100.935 265.981 102.26 267.022 103.413L272.961 98.054ZM272.161 96.6619C271.987 96.2162 271.906 95.7432 271.934 95.201L263.944 94.7908C263.86 96.4332 264.111 98.0424 264.711 99.5765L272.161 96.6619Z" fill="black" mask="url(#path-5-outside-2_6_327)"/>
<g filter="url(#filter0_d_6_327)">
<circle cx="346.5" cy="127.5" r="32.5" fill="#AFC4D4"/>
</g>
<g filter="url(#filter1_d_6_327)">
<circle cx="427.5" cy="127.5" r="32.5" fill="#F1719E"/>
</g>
<g filter="url(#filter2_d_6_327)">
<circle cx="508.5" cy="127.5" r="32.5" fill="#DDD081"/>
</g>
<defs>
<filter id="filter0_d_6_327" x="310" y="95" width="73" height="79" filterUnits="userSpaceOnUse" color-interpolation-filters="sRGB">
<feFlood flood-opacity="0" result="BackgroundImageFix"/>
<feColorMatrix in="SourceAlpha" type="matrix" values="0 0 0 0 0 0 0 0 0 0 0 0 0 0 0 0 0 0 127 0" result="hardAlpha"/>
<feOffset dy="10"/>
<feGaussianBlur stdDeviation="2"/>
<feComposite in2="hardAlpha" operator="out"/>
<feColorMatrix type="matrix" values="0 0 0 0 0 0 0 0 0 0 0 0 0 0 0 0 0 0 0.5 0"/>
<feBlend mode="normal" in2="BackgroundImageFix" result="effect1_dropShadow_6_327"/>
<feBlend mode="normal" in="SourceGraphic" in2="effect1_dropShadow_6_327" result="shape"/>
</filter>
<filter id="filter1_d_6_327" x="391" y="95" width="73" height="79" filterUnits="userSpaceOnUse" color-interpolation-filters="sRGB">
<feFlood flood-opacity="0" result="BackgroundImageFix"/>
<feColorMatrix in="SourceAlpha" type="matrix" values="0 0 0 0 0 0 0 0 0 0 0 0 0 0 0 0 0 0 127 0" result="hardAlpha"/>
<feOffset dy="10"/>
<feGaussianBlur stdDeviation="2"/>
<feComposite in2="hardAlpha" operator="out"/>
<feColorMatrix type="matrix" values="0 0 0 0 0 0 0 0 0 0 0 0 0 0 0 0 0 0 0.5 0"/>
<feBlend mode="normal" in2="BackgroundImageFix" result="effect1_dropShadow_6_327"/>
<feBlend mode="normal" in="SourceGraphic" in2="effect1_dropShadow_6_327" result="shape"/>
</filter>
<filter id="filter2_d_6_327" x="472" y="95" width="73" height="79" filterUnits="userSpaceOnUse" color-interpolation-filters="sRGB">
<feFlood flood-opacity="0" result="BackgroundImageFix"/>
<feColorMatrix in="SourceAlpha" type="matrix" values="0 0 0 0 0 0 0 0 0 0 0 0 0 0 0 0 0 0 127 0" result="hardAlpha"/>
<feOffset dy="10"/>
<feGaussianBlur stdDeviation="2"/>
<feComposite in2="hardAlpha" operator="out"/>
<feColorMatrix type="matrix" values="0 0 0 0 0 0 0 0 0 0 0 0 0 0 0 0 0 0 0.5 0"/>
<feBlend mode="normal" in2="BackgroundImageFix" result="effect1_dropShadow_6_327"/>
<feBlend mode="normal" in="SourceGraphic" in2="effect1_dropShadow_6_327" result="shape"/>
</filter>
</defs>
</svg>
